<mxfile host="app.diagrams.net" modified="2021-06-03T08:08:09.863Z" agent="5.0 (Windows NT 10.0; Win64; x64) AppleWebKit/537.36 (KHTML, like Gecko) Chrome/90.0.4430.93 Safari/537.36" etag="_NdlTCMBZzWSKMIPiLJ4" version="14.7.3" type="github">
  <diagram id="xgVH232hC9hubAoDvVCa" name="第 1 页">
    <mxGraphModel dx="1038" dy="492" grid="1" gridSize="10" guides="1" tooltips="1" connect="1" arrows="1" fold="1" page="1" pageScale="1" pageWidth="1169" pageHeight="827" math="0" shadow="0">
      <root>
        <mxCell id="0" />
        <mxCell id="1" parent="0" />
        <mxCell id="RYFiY0b2f_YgLSgg0vu_-1" style="edgeStyle=orthogonalEdgeStyle;rounded=0;orthogonalLoop=1;jettySize=auto;html=1;exitX=0.5;exitY=1;exitDx=0;exitDy=0;exitPerimeter=0;entryX=0.5;entryY=0;entryDx=0;entryDy=0;" edge="1" parent="1" source="RYFiY0b2f_YgLSgg0vu_-2" target="RYFiY0b2f_YgLSgg0vu_-3">
          <mxGeometry relative="1" as="geometry" />
        </mxCell>
        <mxCell id="RYFiY0b2f_YgLSgg0vu_-2" value="&lt;font style=&quot;font-size: 14px&quot;&gt;开始&lt;/font&gt;" style="strokeWidth=2;html=1;shape=mxgraph.flowchart.terminator;whiteSpace=wrap;" vertex="1" parent="1">
          <mxGeometry x="364" y="110" width="76" height="40" as="geometry" />
        </mxCell>
        <mxCell id="RYFiY0b2f_YgLSgg0vu_-14" style="edgeStyle=orthogonalEdgeStyle;rounded=0;orthogonalLoop=1;jettySize=auto;html=1;exitX=0.5;exitY=1;exitDx=0;exitDy=0;entryX=0.5;entryY=0;entryDx=0;entryDy=0;" edge="1" parent="1" source="RYFiY0b2f_YgLSgg0vu_-3" target="RYFiY0b2f_YgLSgg0vu_-4">
          <mxGeometry relative="1" as="geometry" />
        </mxCell>
        <mxCell id="RYFiY0b2f_YgLSgg0vu_-3" value="&lt;font style=&quot;font-size: 14px&quot;&gt;串口初始化&lt;/font&gt;" style="rounded=0;whiteSpace=wrap;html=1;" vertex="1" parent="1">
          <mxGeometry x="348" y="180" width="108" height="40" as="geometry" />
        </mxCell>
        <mxCell id="RYFiY0b2f_YgLSgg0vu_-15" style="edgeStyle=orthogonalEdgeStyle;rounded=0;orthogonalLoop=1;jettySize=auto;html=1;exitX=0.5;exitY=1;exitDx=0;exitDy=0;entryX=0.5;entryY=0;entryDx=0;entryDy=0;" edge="1" parent="1" source="RYFiY0b2f_YgLSgg0vu_-4" target="RYFiY0b2f_YgLSgg0vu_-5">
          <mxGeometry relative="1" as="geometry" />
        </mxCell>
        <mxCell id="RYFiY0b2f_YgLSgg0vu_-4" value="&lt;font style=&quot;font-size: 14px&quot;&gt;定时器初始化&lt;/font&gt;" style="rounded=0;whiteSpace=wrap;html=1;" vertex="1" parent="1">
          <mxGeometry x="348" y="250" width="108" height="40" as="geometry" />
        </mxCell>
        <mxCell id="RYFiY0b2f_YgLSgg0vu_-16" style="edgeStyle=orthogonalEdgeStyle;rounded=0;orthogonalLoop=1;jettySize=auto;html=1;exitX=0.5;exitY=1;exitDx=0;exitDy=0;entryX=0.5;entryY=0;entryDx=0;entryDy=0;" edge="1" parent="1" source="RYFiY0b2f_YgLSgg0vu_-5" target="RYFiY0b2f_YgLSgg0vu_-6">
          <mxGeometry relative="1" as="geometry" />
        </mxCell>
        <mxCell id="RYFiY0b2f_YgLSgg0vu_-5" value="&lt;font style=&quot;font-size: 14px&quot;&gt;DMA初始化&lt;/font&gt;" style="rounded=0;whiteSpace=wrap;html=1;" vertex="1" parent="1">
          <mxGeometry x="348" y="320" width="108" height="40" as="geometry" />
        </mxCell>
        <mxCell id="RYFiY0b2f_YgLSgg0vu_-17" style="edgeStyle=orthogonalEdgeStyle;rounded=0;orthogonalLoop=1;jettySize=auto;html=1;exitX=1;exitY=0.5;exitDx=0;exitDy=0;entryX=0;entryY=0.5;entryDx=0;entryDy=0;" edge="1" parent="1" source="RYFiY0b2f_YgLSgg0vu_-6" target="RYFiY0b2f_YgLSgg0vu_-7">
          <mxGeometry relative="1" as="geometry" />
        </mxCell>
        <mxCell id="RYFiY0b2f_YgLSgg0vu_-24" style="edgeStyle=orthogonalEdgeStyle;rounded=0;orthogonalLoop=1;jettySize=auto;html=1;exitX=0.5;exitY=1;exitDx=0;exitDy=0;" edge="1" parent="1" source="RYFiY0b2f_YgLSgg0vu_-6">
          <mxGeometry relative="1" as="geometry">
            <mxPoint x="680" y="590" as="targetPoint" />
            <Array as="points">
              <mxPoint x="402" y="590" />
            </Array>
          </mxGeometry>
        </mxCell>
        <mxCell id="RYFiY0b2f_YgLSgg0vu_-6" value="&lt;font style=&quot;font-size: 14px&quot;&gt;串口是否有数据传入&lt;/font&gt;" style="rhombus;whiteSpace=wrap;html=1;" vertex="1" parent="1">
          <mxGeometry x="327" y="390" width="150" height="80" as="geometry" />
        </mxCell>
        <mxCell id="RYFiY0b2f_YgLSgg0vu_-18" style="edgeStyle=orthogonalEdgeStyle;rounded=0;orthogonalLoop=1;jettySize=auto;html=1;exitX=0.5;exitY=1;exitDx=0;exitDy=0;entryX=0.5;entryY=0;entryDx=0;entryDy=0;" edge="1" parent="1" source="RYFiY0b2f_YgLSgg0vu_-7" target="RYFiY0b2f_YgLSgg0vu_-8">
          <mxGeometry relative="1" as="geometry" />
        </mxCell>
        <mxCell id="RYFiY0b2f_YgLSgg0vu_-7" value="&lt;font style=&quot;font-size: 14px&quot;&gt;串口中断函数&lt;/font&gt;" style="rounded=0;whiteSpace=wrap;html=1;" vertex="1" parent="1">
          <mxGeometry x="630" y="140" width="108" height="40" as="geometry" />
        </mxCell>
        <mxCell id="RYFiY0b2f_YgLSgg0vu_-19" style="edgeStyle=orthogonalEdgeStyle;rounded=0;orthogonalLoop=1;jettySize=auto;html=1;exitX=0.5;exitY=1;exitDx=0;exitDy=0;entryX=0.5;entryY=0;entryDx=0;entryDy=0;" edge="1" parent="1" source="RYFiY0b2f_YgLSgg0vu_-8" target="RYFiY0b2f_YgLSgg0vu_-9">
          <mxGeometry relative="1" as="geometry" />
        </mxCell>
        <mxCell id="RYFiY0b2f_YgLSgg0vu_-8" value="&lt;font style=&quot;font-size: 14px&quot;&gt;定时器使能&lt;/font&gt;" style="rounded=0;whiteSpace=wrap;html=1;" vertex="1" parent="1">
          <mxGeometry x="630" y="210" width="108" height="40" as="geometry" />
        </mxCell>
        <mxCell id="RYFiY0b2f_YgLSgg0vu_-20" style="edgeStyle=orthogonalEdgeStyle;rounded=0;orthogonalLoop=1;jettySize=auto;html=1;exitX=0.5;exitY=1;exitDx=0;exitDy=0;entryX=0.5;entryY=0;entryDx=0;entryDy=0;" edge="1" parent="1" source="RYFiY0b2f_YgLSgg0vu_-9" target="RYFiY0b2f_YgLSgg0vu_-10">
          <mxGeometry relative="1" as="geometry" />
        </mxCell>
        <mxCell id="RYFiY0b2f_YgLSgg0vu_-9" value="&lt;font style=&quot;font-size: 14px&quot;&gt;存储接收&lt;/font&gt;" style="rounded=0;whiteSpace=wrap;html=1;" vertex="1" parent="1">
          <mxGeometry x="630" y="290" width="108" height="40" as="geometry" />
        </mxCell>
        <mxCell id="RYFiY0b2f_YgLSgg0vu_-21" style="edgeStyle=orthogonalEdgeStyle;rounded=0;orthogonalLoop=1;jettySize=auto;html=1;exitX=0.5;exitY=1;exitDx=0;exitDy=0;entryX=0.5;entryY=0;entryDx=0;entryDy=0;" edge="1" parent="1" source="RYFiY0b2f_YgLSgg0vu_-10" target="RYFiY0b2f_YgLSgg0vu_-11">
          <mxGeometry relative="1" as="geometry" />
        </mxCell>
        <mxCell id="RYFiY0b2f_YgLSgg0vu_-28" style="edgeStyle=orthogonalEdgeStyle;rounded=0;orthogonalLoop=1;jettySize=auto;html=1;exitX=1;exitY=0.5;exitDx=0;exitDy=0;entryX=1;entryY=0.5;entryDx=0;entryDy=0;" edge="1" parent="1" source="RYFiY0b2f_YgLSgg0vu_-10" target="RYFiY0b2f_YgLSgg0vu_-7">
          <mxGeometry relative="1" as="geometry">
            <Array as="points">
              <mxPoint x="800" y="400" />
              <mxPoint x="800" y="160" />
            </Array>
          </mxGeometry>
        </mxCell>
        <mxCell id="RYFiY0b2f_YgLSgg0vu_-10" value="&lt;font style=&quot;font-size: 14px&quot;&gt;20ms计时是否结束&lt;/font&gt;" style="rhombus;whiteSpace=wrap;html=1;" vertex="1" parent="1">
          <mxGeometry x="609" y="360" width="150" height="80" as="geometry" />
        </mxCell>
        <mxCell id="RYFiY0b2f_YgLSgg0vu_-22" style="edgeStyle=orthogonalEdgeStyle;rounded=0;orthogonalLoop=1;jettySize=auto;html=1;exitX=0.5;exitY=1;exitDx=0;exitDy=0;entryX=0.5;entryY=0;entryDx=0;entryDy=0;" edge="1" parent="1" source="RYFiY0b2f_YgLSgg0vu_-11" target="RYFiY0b2f_YgLSgg0vu_-12">
          <mxGeometry relative="1" as="geometry" />
        </mxCell>
        <mxCell id="RYFiY0b2f_YgLSgg0vu_-11" value="&lt;font style=&quot;font-size: 14px&quot;&gt;定时器中断函数&lt;/font&gt;" style="rounded=0;whiteSpace=wrap;html=1;" vertex="1" parent="1">
          <mxGeometry x="630" y="470" width="108" height="40" as="geometry" />
        </mxCell>
        <mxCell id="RYFiY0b2f_YgLSgg0vu_-23" style="edgeStyle=orthogonalEdgeStyle;rounded=0;orthogonalLoop=1;jettySize=auto;html=1;exitX=0.5;exitY=1;exitDx=0;exitDy=0;entryX=0.5;entryY=0;entryDx=0;entryDy=0;entryPerimeter=0;" edge="1" parent="1" source="RYFiY0b2f_YgLSgg0vu_-12" target="RYFiY0b2f_YgLSgg0vu_-13">
          <mxGeometry relative="1" as="geometry" />
        </mxCell>
        <mxCell id="RYFiY0b2f_YgLSgg0vu_-12" value="&lt;font style=&quot;font-size: 14px&quot;&gt;DMA传送数据&lt;/font&gt;" style="rounded=0;whiteSpace=wrap;html=1;" vertex="1" parent="1">
          <mxGeometry x="630" y="540" width="108" height="40" as="geometry" />
        </mxCell>
        <mxCell id="RYFiY0b2f_YgLSgg0vu_-13" value="&lt;font style=&quot;font-size: 14px&quot;&gt;结束&lt;br&gt;&lt;/font&gt;" style="strokeWidth=2;html=1;shape=mxgraph.flowchart.terminator;whiteSpace=wrap;" vertex="1" parent="1">
          <mxGeometry x="646" y="610" width="76" height="40" as="geometry" />
        </mxCell>
        <mxCell id="RYFiY0b2f_YgLSgg0vu_-25" value="&lt;font style=&quot;font-size: 14px&quot;&gt;是&lt;/font&gt;" style="text;html=1;align=center;verticalAlign=middle;resizable=0;points=[];autosize=1;strokeColor=none;" vertex="1" parent="1">
          <mxGeometry x="485" y="400" width="30" height="20" as="geometry" />
        </mxCell>
        <mxCell id="RYFiY0b2f_YgLSgg0vu_-26" value="&lt;font style=&quot;font-size: 14px&quot;&gt;否&lt;/font&gt;" style="text;html=1;align=center;verticalAlign=middle;resizable=0;points=[];autosize=1;strokeColor=none;" vertex="1" parent="1">
          <mxGeometry x="410" y="470" width="30" height="20" as="geometry" />
        </mxCell>
        <mxCell id="RYFiY0b2f_YgLSgg0vu_-27" value="&lt;font style=&quot;font-size: 14px&quot;&gt;是&lt;/font&gt;" style="text;html=1;align=center;verticalAlign=middle;resizable=0;points=[];autosize=1;strokeColor=none;" vertex="1" parent="1">
          <mxGeometry x="645" y="440" width="30" height="20" as="geometry" />
        </mxCell>
        <mxCell id="RYFiY0b2f_YgLSgg0vu_-29" value="&lt;font style=&quot;font-size: 14px&quot;&gt;否&lt;/font&gt;" style="text;html=1;align=center;verticalAlign=middle;resizable=0;points=[];autosize=1;strokeColor=none;" vertex="1" parent="1">
          <mxGeometry x="755" y="370" width="30" height="20" as="geometry" />
        </mxCell>
      </root>
    </mxGraphModel>
  </diagram>
</mxfile>
